<?xml version="1.0" encoding="UTF-8" standalone="no"?>
<!DOCTYPE svg PUBLIC "-//W3C//DTD SVG 1.1//EN"
 "http://www.w3.org/Graphics/SVG/1.1/DTD/svg11.dtd">
<!-- Generated by graphviz version 2.47.0 (20210316.0004)
 -->
<!-- Title: dependencies Pages: 1 -->
<svg width="504pt" height="284pt"
 viewBox="0.00 0.00 504.00 284.00" xmlns="http://www.w3.org/2000/svg" xmlns:xlink="http://www.w3.org/1999/xlink">
<g id="graph0" class="graph" transform="scale(1 1) rotate(0) translate(4 280)">
<title>dependencies</title>
<polygon fill="white" stroke="transparent" points="-4,4 -4,-280 500,-280 500,4 -4,4"/>
<text text-anchor="start" x="227.01" y="-42.4" font-family="Times-12" font-weight="bold" font-size="14.00">Legend</text>
<polygon fill="#ffffb3" stroke="transparent" points="14,-10 14,-30 34,-30 34,-10 14,-10"/>
<text text-anchor="start" x="37.63" y="-15.4" font-family="Times-12" font-size="14.00"> &#160;Declarations</text>
<polygon fill="#8dd3c7" stroke="transparent" points="127,-10 127,-30 147,-30 147,-10 127,-10"/>
<text text-anchor="start" x="150.73" y="-15.4" font-family="Times-12" font-size="14.00"> &#160;Module</text>
<polygon fill="#80b1d3" stroke="transparent" points="213,-10 213,-30 233,-30 233,-10 213,-10"/>
<text text-anchor="start" x="236.78" y="-15.4" font-family="Times-12" font-size="14.00"> &#160;Bootstrap</text>
<polygon fill="#fdb462" stroke="transparent" points="310,-10 310,-30 330,-30 330,-10 310,-10"/>
<text text-anchor="start" x="333.67" y="-15.4" font-family="Times-12" font-size="14.00"> &#160;Providers</text>
<polygon fill="#fb8072" stroke="transparent" points="406,-10 406,-30 426,-30 426,-10 406,-10"/>
<text text-anchor="start" x="429.73" y="-15.4" font-family="Times-12" font-size="14.00"> &#160;Exports</text>
<g id="clust1" class="cluster">
<title>cluster_EmployeeModule</title>
<polygon fill="none" stroke="black" stroke-dasharray="1,5" points="28,-70 28,-268 468,-268 468,-70 28,-70"/>
</g>
<g id="clust4" class="cluster">
<title>cluster_EmployeeModule_exports</title>
<polygon fill="none" stroke="black" points="66,-208 66,-260 390,-260 390,-208 66,-208"/>
</g>
<g id="clust6" class="cluster">
<title>cluster_EmployeeModule_providers</title>
<polygon fill="none" stroke="black" points="36,-78 36,-130 460,-130 460,-78 36,-78"/>
</g>
<!-- EmployeeAnalyticsService  -->
<g id="node1" class="node">
<title>EmployeeAnalyticsService </title>
<polygon fill="#fb8072" stroke="black" points="381.89,-252 210.11,-252 210.11,-216 381.89,-216 381.89,-252"/>
<text text-anchor="middle" x="296" y="-229.8" font-family="Times,serif" font-size="14.00">EmployeeAnalyticsService </text>
</g>
<!-- EmployeeService  -->
<g id="node2" class="node">
<title>EmployeeService </title>
<polygon fill="#fb8072" stroke="black" points="192.24,-252 73.76,-252 73.76,-216 192.24,-216 192.24,-252"/>
<text text-anchor="middle" x="133" y="-229.8" font-family="Times,serif" font-size="14.00">EmployeeService </text>
</g>
<!-- EmployeeModule -->
<g id="node3" class="node">
<title>EmployeeModule</title>
<polygon fill="#8dd3c7" stroke="black" points="221.31,-187 218.31,-191 197.31,-191 194.31,-187 104.69,-187 104.69,-151 221.31,-151 221.31,-187"/>
<text text-anchor="middle" x="163" y="-164.8" font-family="Times,serif" font-size="14.00">EmployeeModule</text>
</g>
<!-- EmployeeModule&#45;&gt;EmployeeAnalyticsService  -->
<g id="edge1" class="edge">
<title>EmployeeModule&#45;&gt;EmployeeAnalyticsService </title>
<path fill="none" stroke="black" stroke-dasharray="5,2" d="M215.61,-187.11C215.61,-187.11 215.61,-205.99 215.61,-205.99"/>
<polygon fill="black" stroke="black" points="212.11,-205.99 215.61,-215.99 219.11,-205.99 212.11,-205.99"/>
</g>
<!-- EmployeeModule&#45;&gt;EmployeeService  -->
<g id="edge2" class="edge">
<title>EmployeeModule&#45;&gt;EmployeeService </title>
<path fill="none" stroke="black" stroke-dasharray="5,2" d="M148.48,-187.11C148.48,-187.11 148.48,-205.99 148.48,-205.99"/>
<polygon fill="black" stroke="black" points="144.98,-205.99 148.48,-215.99 151.98,-205.99 144.98,-205.99"/>
</g>
<!-- EmployeeAnalyticsService -->
<g id="node4" class="node">
<title>EmployeeAnalyticsService</title>
<ellipse fill="#fdb462" stroke="black" cx="336" cy="-104" rx="116.31" ry="18"/>
<text text-anchor="middle" x="336" y="-99.8" font-family="Times,serif" font-size="14.00">EmployeeAnalyticsService</text>
</g>
<!-- EmployeeAnalyticsService&#45;&gt;EmployeeModule -->
<g id="edge3" class="edge">
<title>EmployeeAnalyticsService&#45;&gt;EmployeeModule</title>
<path fill="none" stroke="black" d="M219.59,-104C214.2,-104 211,-104 211,-104 211,-104 211,-140.89 211,-140.89"/>
<polygon fill="black" stroke="black" points="207.5,-140.89 211,-150.89 214.5,-140.89 207.5,-140.89"/>
</g>
<!-- EmployeeService -->
<g id="node5" class="node">
<title>EmployeeService</title>
<ellipse fill="#fdb462" stroke="black" cx="123" cy="-104" rx="79.29" ry="18"/>
<text text-anchor="middle" x="123" y="-99.8" font-family="Times,serif" font-size="14.00">EmployeeService</text>
</g>
<!-- EmployeeService&#45;&gt;EmployeeModule -->
<g id="edge4" class="edge">
<title>EmployeeService&#45;&gt;EmployeeModule</title>
<path fill="none" stroke="black" d="M153.49,-120.74C153.49,-120.74 153.49,-140.72 153.49,-140.72"/>
<polygon fill="black" stroke="black" points="149.99,-140.72 153.49,-150.72 156.99,-140.72 149.99,-140.72"/>
</g>
</g>
</svg>
