<?xml version="1.0" encoding="UTF-8" standalone="no"?>
<!DOCTYPE svg PUBLIC "-//W3C//DTD SVG 1.1//EN"
 "http://www.w3.org/Graphics/SVG/1.1/DTD/svg11.dtd">
<!-- Generated by graphviz version 2.47.0 (20210316.0004)
 -->
<!-- Title: dependencies Pages: 1 -->
<svg width="504pt" height="211pt"
 viewBox="0.00 0.00 504.00 211.00" xmlns="http://www.w3.org/2000/svg" xmlns:xlink="http://www.w3.org/1999/xlink">
<g id="graph0" class="graph" transform="scale(1 1) rotate(0) translate(4 207)">
<title>dependencies</title>
<polygon fill="white" stroke="transparent" points="-4,4 -4,-207 500,-207 500,4 -4,4"/>
<text text-anchor="start" x="227.01" y="-42.4" font-family="Times-12" font-weight="bold" font-size="14.00">Legend</text>
<polygon fill="#ffffb3" stroke="transparent" points="14,-10 14,-30 34,-30 34,-10 14,-10"/>
<text text-anchor="start" x="37.63" y="-15.4" font-family="Times-12" font-size="14.00"> &#160;Declarations</text>
<polygon fill="#8dd3c7" stroke="transparent" points="127,-10 127,-30 147,-30 147,-10 127,-10"/>
<text text-anchor="start" x="150.73" y="-15.4" font-family="Times-12" font-size="14.00"> &#160;Module</text>
<polygon fill="#80b1d3" stroke="transparent" points="213,-10 213,-30 233,-30 233,-10 213,-10"/>
<text text-anchor="start" x="236.78" y="-15.4" font-family="Times-12" font-size="14.00"> &#160;Bootstrap</text>
<polygon fill="#fdb462" stroke="transparent" points="310,-10 310,-30 330,-30 330,-10 310,-10"/>
<text text-anchor="start" x="333.67" y="-15.4" font-family="Times-12" font-size="14.00"> &#160;Providers</text>
<polygon fill="#fb8072" stroke="transparent" points="406,-10 406,-30 426,-30 426,-10 406,-10"/>
<text text-anchor="start" x="429.73" y="-15.4" font-family="Times-12" font-size="14.00"> &#160;Exports</text>
<g id="clust1" class="cluster">
<title>cluster_EmployeeAnalyticsModule</title>
<polygon fill="none" stroke="black" stroke-dasharray="1,5" points="28,-70 28,-195 468,-195 468,-70 28,-70"/>
</g>
<g id="clust6" class="cluster">
<title>cluster_EmployeeAnalyticsModule_providers</title>
<polygon fill="none" stroke="black" points="36,-78 36,-130 460,-130 460,-78 36,-78"/>
</g>
<!-- EmployeeAnalyticsService -->
<g id="node1" class="node">
<title>EmployeeAnalyticsService</title>
<ellipse fill="#fdb462" stroke="black" cx="336" cy="-104" rx="116.31" ry="18"/>
<text text-anchor="middle" x="336" y="-99.8" font-family="Times,serif" font-size="14.00">EmployeeAnalyticsService</text>
</g>
<!-- EmployeeAnalyticsModule -->
<g id="node3" class="node">
<title>EmployeeAnalyticsModule</title>
<polygon fill="#8dd3c7" stroke="black" points="313.97,-187 310.97,-191 289.97,-191 286.97,-187 144.03,-187 144.03,-151 313.97,-151 313.97,-187"/>
<text text-anchor="middle" x="229" y="-164.8" font-family="Times,serif" font-size="14.00">EmployeeAnalyticsModule</text>
</g>
<!-- EmployeeAnalyticsService&#45;&gt;EmployeeAnalyticsModule -->
<g id="edge1" class="edge">
<title>EmployeeAnalyticsService&#45;&gt;EmployeeAnalyticsModule</title>
<path fill="none" stroke="black" d="M266.91,-118.75C266.91,-118.75 266.91,-140.59 266.91,-140.59"/>
<polygon fill="black" stroke="black" points="263.41,-140.59 266.91,-150.59 270.41,-140.59 263.41,-140.59"/>
</g>
<!-- EmployeeService -->
<g id="node2" class="node">
<title>EmployeeService</title>
<ellipse fill="#fdb462" stroke="black" cx="123" cy="-104" rx="79.29" ry="18"/>
<text text-anchor="middle" x="123" y="-99.8" font-family="Times,serif" font-size="14.00">EmployeeService</text>
</g>
<!-- EmployeeService&#45;&gt;EmployeeAnalyticsModule -->
<g id="edge2" class="edge">
<title>EmployeeService&#45;&gt;EmployeeAnalyticsModule</title>
<path fill="none" stroke="black" d="M173.08,-118.1C173.08,-118.1 173.08,-140.72 173.08,-140.72"/>
<polygon fill="black" stroke="black" points="169.58,-140.72 173.08,-150.72 176.58,-140.72 169.58,-140.72"/>
</g>
</g>
</svg>
