<?xml version="1.0" encoding="UTF-8" standalone="no"?>
<!DOCTYPE svg PUBLIC "-//W3C//DTD SVG 1.1//EN"
 "http://www.w3.org/Graphics/SVG/1.1/DTD/svg11.dtd">
<!-- Generated by graphviz version 2.47.0 (20210316.0004)
 -->
<!-- Title: dependencies Pages: 1 -->
<svg width="685pt" height="211pt"
 viewBox="0.00 0.00 685.00 211.00" xmlns="http://www.w3.org/2000/svg" xmlns:xlink="http://www.w3.org/1999/xlink">
<g id="graph0" class="graph" transform="scale(1 1) rotate(0) translate(4 207)">
<title>dependencies</title>
<polygon fill="white" stroke="transparent" points="-4,4 -4,-207 681,-207 681,4 -4,4"/>
<text text-anchor="start" x="317.51" y="-42.4" font-family="Times-12" font-weight="bold" font-size="14.00">Legend</text>
<polygon fill="#ffffb3" stroke="transparent" points="104.5,-10 104.5,-30 124.5,-30 124.5,-10 104.5,-10"/>
<text text-anchor="start" x="128.13" y="-15.4" font-family="Times-12" font-size="14.00"> &#160;Declarations</text>
<polygon fill="#8dd3c7" stroke="transparent" points="217.5,-10 217.5,-30 237.5,-30 237.5,-10 217.5,-10"/>
<text text-anchor="start" x="241.23" y="-15.4" font-family="Times-12" font-size="14.00"> &#160;Module</text>
<polygon fill="#80b1d3" stroke="transparent" points="303.5,-10 303.5,-30 323.5,-30 323.5,-10 303.5,-10"/>
<text text-anchor="start" x="327.28" y="-15.4" font-family="Times-12" font-size="14.00"> &#160;Bootstrap</text>
<polygon fill="#fdb462" stroke="transparent" points="400.5,-10 400.5,-30 420.5,-30 420.5,-10 400.5,-10"/>
<text text-anchor="start" x="424.17" y="-15.4" font-family="Times-12" font-size="14.00"> &#160;Providers</text>
<polygon fill="#fb8072" stroke="transparent" points="496.5,-10 496.5,-30 516.5,-30 516.5,-10 496.5,-10"/>
<text text-anchor="start" x="520.23" y="-15.4" font-family="Times-12" font-size="14.00"> &#160;Exports</text>
<g id="clust1" class="cluster">
<title>cluster_AppModule</title>
<polygon fill="none" stroke="black" stroke-dasharray="1,5" points="8,-70 8,-195 669,-195 669,-70 8,-70"/>
</g>
<g id="clust3" class="cluster">
<title>cluster_AppModule_imports</title>
<polygon fill="none" stroke="black" points="16,-78 16,-130 661,-130 661,-78 16,-78"/>
</g>
<!-- AuthModule -->
<g id="node1" class="node">
<title>AuthModule</title>
<polygon fill="#8dd3c7" stroke="black" points="652.55,-122 649.55,-126 628.55,-126 625.55,-122 565.45,-122 565.45,-86 652.55,-86 652.55,-122"/>
<text text-anchor="middle" x="609" y="-99.8" font-family="Times,serif" font-size="14.00">AuthModule</text>
</g>
<!-- AppModule -->
<g id="node6" class="node">
<title>AppModule</title>
<polygon fill="#8dd3c7" stroke="black" points="342.66,-187 339.66,-191 318.66,-191 315.66,-187 259.34,-187 259.34,-151 342.66,-151 342.66,-187"/>
<text text-anchor="middle" x="301" y="-164.8" font-family="Times,serif" font-size="14.00">AppModule</text>
</g>
<!-- AuthModule&#45;&gt;AppModule -->
<g id="edge1" class="edge">
<title>AuthModule&#45;&gt;AppModule</title>
<path fill="none" stroke="black" d="M609,-122.28C609,-143.32 609,-175 609,-175 609,-175 352.86,-175 352.86,-175"/>
<polygon fill="black" stroke="black" points="352.86,-171.5 342.86,-175 352.86,-178.5 352.86,-171.5"/>
</g>
<!-- EmployeeAnalyticsModule -->
<g id="node2" class="node">
<title>EmployeeAnalyticsModule</title>
<polygon fill="#8dd3c7" stroke="black" points="546.97,-122 543.97,-126 522.97,-126 519.97,-122 377.03,-122 377.03,-86 546.97,-86 546.97,-122"/>
<text text-anchor="middle" x="462" y="-99.8" font-family="Times,serif" font-size="14.00">EmployeeAnalyticsModule</text>
</g>
<!-- EmployeeAnalyticsModule&#45;&gt;AppModule -->
<g id="edge2" class="edge">
<title>EmployeeAnalyticsModule&#45;&gt;AppModule</title>
<path fill="none" stroke="black" d="M462,-122.02C462,-139.37 462,-163 462,-163 462,-163 352.88,-163 352.88,-163"/>
<polygon fill="black" stroke="black" points="352.88,-159.5 342.88,-163 352.88,-166.5 352.88,-159.5"/>
</g>
<!-- EmployeeModule -->
<g id="node3" class="node">
<title>EmployeeModule</title>
<polygon fill="#8dd3c7" stroke="black" points="359.31,-122 356.31,-126 335.31,-126 332.31,-122 242.69,-122 242.69,-86 359.31,-86 359.31,-122"/>
<text text-anchor="middle" x="301" y="-99.8" font-family="Times,serif" font-size="14.00">EmployeeModule</text>
</g>
<!-- EmployeeModule&#45;&gt;AppModule -->
<g id="edge3" class="edge">
<title>EmployeeModule&#45;&gt;AppModule</title>
<path fill="none" stroke="black" d="M301,-122.11C301,-122.11 301,-140.99 301,-140.99"/>
<polygon fill="black" stroke="black" points="297.5,-140.99 301,-150.99 304.5,-140.99 297.5,-140.99"/>
</g>
<!-- HealthModule -->
<g id="node4" class="node">
<title>HealthModule</title>
<polygon fill="#8dd3c7" stroke="black" points="224.37,-122 221.37,-126 200.37,-126 197.37,-122 127.63,-122 127.63,-86 224.37,-86 224.37,-122"/>
<text text-anchor="middle" x="176" y="-99.8" font-family="Times,serif" font-size="14.00">HealthModule</text>
</g>
<!-- HealthModule&#45;&gt;AppModule -->
<g id="edge4" class="edge">
<title>HealthModule&#45;&gt;AppModule</title>
<path fill="none" stroke="black" d="M176,-122.02C176,-139.37 176,-163 176,-163 176,-163 249.03,-163 249.03,-163"/>
<polygon fill="black" stroke="black" points="249.03,-166.5 259.03,-163 249.03,-159.5 249.03,-166.5"/>
</g>
<!-- SkillModule -->
<g id="node5" class="node">
<title>SkillModule</title>
<polygon fill="#8dd3c7" stroke="black" points="110,-122 107,-126 86,-126 83,-122 24,-122 24,-86 110,-86 110,-122"/>
<text text-anchor="middle" x="67" y="-99.8" font-family="Times,serif" font-size="14.00">SkillModule</text>
</g>
<!-- SkillModule&#45;&gt;AppModule -->
<g id="edge5" class="edge">
<title>SkillModule&#45;&gt;AppModule</title>
<path fill="none" stroke="black" d="M67,-122.28C67,-143.32 67,-175 67,-175 67,-175 249.17,-175 249.17,-175"/>
<polygon fill="black" stroke="black" points="249.17,-178.5 259.17,-175 249.17,-171.5 249.17,-178.5"/>
</g>
</g>
</svg>
